<?xml version="1.0" encoding="UTF-8"?>
<svg width="34px" height="26px" viewBox="0 0 34 26" version="1.1" xmlns="http://www.w3.org/2000/svg" xmlns:xlink="http://www.w3.org/1999/xlink">
    <!-- Generator: Sketch 52.5 (67469) - http://www.bohemiancoding.com/sketch -->
    <title>Group</title>
    <desc>Created with Sketch.</desc>
    <defs>
        <path d="M13.8178711,9.75292968 L16.4155273,9.75292968 L16.4155273,16.2470703 L13.8178711,16.2470703 L13.8178711,9.75292968 Z M9.92138669,8.45410155 L12.519043,8.45410155 L12.519043,16.2470703 L9.92138669,16.2470703 L9.92138669,8.45410155 Z M30.3779297,18.8526494 L33.6250001,18.8526494 L33.6250001,22.0917969 C33.6250001,24.2403184 31.8770372,25.9882813 29.7285157,25.9882813 L4.27148433,25.9882813 C2.12296284,25.9882813 0.374999941,24.2403184 0.374999941,22.0917969 L0.374999941,18.8526494 L3.62207026,18.8526494 L3.62207026,3.90820309 C3.62207026,1.7596816 5.37003316,0.0117187036 7.51855465,0.0117187036 L26.4814453,0.0117187036 C28.6299668,0.0117187036 30.3779297,1.7596816 30.3779297,3.90820309 L30.3779297,18.8526494 Z M6.21972652,3.90820309 L6.21972652,18.8447266 L27.7802735,18.8447266 L27.7802735,3.90820309 C27.7802735,3.19202926 27.1976192,2.60937496 26.4814453,2.60937496 L7.51855465,2.60937496 C6.80238082,2.60937496 6.21972652,3.19202926 6.21972652,3.90820309 Z M11.8046875,23.390625 L11.8046875,21.4503057 L2.9726562,21.4503057 L2.9726562,22.0917969 C2.9726562,22.8079707 3.5553105,23.390625 4.27148433,23.390625 L11.8046875,23.390625 Z M19.5976563,23.390625 L19.5976563,21.4423828 L14.4023437,21.4423828 L14.4023437,23.390625 L19.5976563,23.390625 Z M31.0273438,22.0917969 L31.0273438,21.4503057 L22.1953125,21.4503057 L22.1953125,23.390625 L29.7285157,23.390625 C30.4446895,23.390625 31.0273438,22.8079707 31.0273438,22.0917969 Z M21.6108399,11.7661133 L24.2084961,11.7661133 L24.2084961,16.2470703 L21.6108399,16.2470703 L21.6108399,11.7661133 Z M17.7143555,5.20703122 L20.3120117,5.20703122 L20.3120117,16.2470703 L17.7143555,16.2470703 L17.7143555,5.20703122 Z" id="path-1"></path>
    </defs>
    <g id="Page-1" stroke="none" stroke-width="1" fill="none" fill-rule="evenodd">
        <g id="banking-finance/007-analytics" transform="translate(-2.000000, -6.000000)">
            <g id="Group" transform="translate(2.000000, 6.000000)">
                <mask id="mask-2" fill="white">
                    <use xlink:href="#path-1"></use>
                </mask>
                <g id="Combined-Shape"></g>
                <g id="pink" mask="url(#mask-2)" fill="#FFFFFF">
                    <g transform="translate(-2.000000, -6.000000)" id="Rectangle">
                        <rect x="0" y="0" width="38" height="38" rx="8"></rect>
                    </g>
                </g>
            </g>
        </g>
    </g>
</svg>